<?xml version="1.0" encoding="utf-8"?>
<!--
  Licensed to the Apache Software Foundation (ASF) under one or more
  contributor license agreements.  See the NOTICE file distributed with
  this work for additional information regarding copyright ownership.
  The ASF licenses this file to You under the Apache License, Version 2.0
  (the "License"); you may not use this file except in compliance with
  the License.  You may obtain a copy of the License at

      http://www.apache.org/licenses/LICENSE-2.0

  Unless required by applicable law or agreed to in writing, software
  distributed under the License is distributed on an "AS IS" BASIS,
  WITHOUT WARRANTIES OR CONDITIONS OF ANY KIND, either express or implied.
  See the License for the specific language governing permissions and
  limitations under the License.
-->
<!-- Generator: Adobe Illustrator 12.0.0, SVG Export Plug-In . SVG Version: 6.00 Build 51448)  -->
<!DOCTYPE svg PUBLIC "-//W3C//DTD SVG 1.1//EN" "http://www.w3.org/Graphics/SVG/1.1/DTD/svg11.dtd" [
	<!ENTITY ns_svg "http://www.w3.org/2000/svg">
	<!ENTITY ns_xlink "http://www.w3.org/1999/xlink">
]>
<svg  version="1.1" id="Layer_1" xmlns="&ns_svg;" xmlns:xlink="&ns_xlink;" width="612" height="792" viewBox="0 0 612 792"
	 overflow="visible" enable-background="new 0 0 612 792" xml:space="preserve">
<g>
	<g>
		<path fill="none" stroke="#000000" stroke-width="2.8346" stroke-linecap="round" stroke-linejoin="round" d="M232.384,95.441
			h-22.676c-3.118,0-5.669,2.551-5.669,5.669v2.835c0,3.118,2.551,5.669,5.669,5.669h22.677"/>
		<path fill="none" stroke="#FFFFFF" stroke-width="2.8346" stroke-linecap="round" stroke-linejoin="round" d="M230.684,93.741
			h-22.677c-3.118,0-5.669,2.551-5.669,5.669v2.835c0,3.118,2.551,5.669,5.669,5.669h22.677"/>
	</g>
	<g>
		<path fill="none" stroke="#000000" stroke-width="2.8346" stroke-linecap="round" stroke-linejoin="round" d="M245.14,95.441
			c-3.117,0-5.669,2.551-5.669,5.669v2.835c0,3.118,2.552,5.669,5.669,5.669h17.008c3.119,0,5.67-2.551,5.67-5.669v-2.835
			c0-3.118-2.551-5.669-5.67-5.669H245.14z"/>
		<path fill="none" stroke="#FFFFFF" stroke-width="2.8346" stroke-linecap="round" stroke-linejoin="round" d="M243.439,93.741
			c-3.117,0-5.669,2.551-5.669,5.669v2.835c0,3.118,2.552,5.669,5.669,5.669h17.008c3.119,0,5.67-2.551,5.67-5.669V99.41
			c0-3.118-2.551-5.669-5.67-5.669H243.439z"/>
	</g>
	<g>
		<path fill="none" stroke="#000000" stroke-width="2.8346" stroke-linecap="round" stroke-linejoin="round" d="M316.007,95.441
			c-3.118,0-5.67,2.551-5.67,5.669v2.835c0,3.118,2.552,5.669,5.67,5.669h17.009c3.117,0,5.67-2.551,5.67-5.669v-2.835
			c0-3.118-2.553-5.669-5.67-5.669H316.007z"/>
		<path fill="none" stroke="#FFFFFF" stroke-width="2.8346" stroke-linecap="round" stroke-linejoin="round" d="M314.307,93.741
			c-3.119,0-5.67,2.551-5.67,5.669v2.835c0,3.118,2.551,5.669,5.67,5.669h17.008c3.117,0,5.67-2.551,5.67-5.669V99.41
			c0-3.118-2.553-5.669-5.67-5.669H314.307z"/>
	</g>
	<g>
		<path fill="none" stroke="#000000" stroke-width="2.8346" stroke-linecap="round" stroke-linejoin="round" d="M351.439,95.441
			c-3.119,0-5.67,2.551-5.67,5.669v2.835c0,3.118,2.551,5.669,5.67,5.669h17.009c3.116,0,5.668-2.551,5.668-5.669v-2.835
			c0-3.118-2.552-5.669-5.668-5.669H351.439z"/>
		<path fill="none" stroke="#FFFFFF" stroke-width="2.8346" stroke-linecap="round" stroke-linejoin="round" d="M349.738,93.741
			c-3.118,0-5.67,2.551-5.67,5.669v2.835c0,3.118,2.552,5.669,5.67,5.669h17.009c3.116,0,5.668-2.551,5.668-5.669V99.41
			c0-3.118-2.552-5.669-5.668-5.669H349.738z"/>
	</g>
	<g>
		<path fill="none" stroke="#000000" stroke-width="2.8346" stroke-linecap="round" stroke-linejoin="round" d="M303.25,95.441
			h-22.677c-3.117,0-5.669,2.551-5.669,5.669v2.835c0,3.118,2.552,5.669,5.669,5.669h22.677"/>
		<path fill="none" stroke="#FFFFFF" stroke-width="2.8346" stroke-linecap="round" stroke-linejoin="round" d="M301.55,93.741
			h-22.677c-3.117,0-5.669,2.551-5.669,5.669v2.835c0,3.118,2.552,5.669,5.669,5.669h22.677"/>
	</g>
	<g>
		<path fill="none" stroke="#000000" stroke-width="2.8346" stroke-linecap="round" stroke-linejoin="round" d="M408.134,109.614
			v-8.504c0-3.118-2.551-5.669-5.67-5.669h-21.26v14.173"/>
		<path fill="none" stroke="#FFFFFF" stroke-width="2.8346" stroke-linecap="round" stroke-linejoin="round" d="M406.434,107.914
			V99.41c0-3.118-2.552-5.669-5.67-5.669h-21.261v14.173"/>
	</g>
	<g>
		<path fill="none" stroke="#000000" stroke-width="2.8346" stroke-linecap="round" stroke-linejoin="round" d="M331.598,102.527
			h0.002H331.598z"/>
		<path fill="none" stroke="#FFFFFF" stroke-width="2.8346" stroke-linecap="round" stroke-linejoin="round" d="M329.896,100.827
			L329.896,100.827L329.896,100.827z"/>
	</g>
	<g>
		<path fill="none" stroke="#000000" stroke-width="2.8346" stroke-linecap="round" stroke-linejoin="round" d="M352.855,102.527
			h0.002H352.855z"/>
		<path fill="none" stroke="#FFFFFF" stroke-width="2.8346" stroke-linecap="round" stroke-linejoin="round" d="M351.154,100.827
			h0.002H351.154z"/>
	</g>
	<g>
		<path fill="none" stroke="#000000" stroke-width="2.8346" stroke-linecap="round" stroke-linejoin="round" d="M260.731,102.527
			L260.731,102.527L260.731,102.527z"/>
		<path fill="none" stroke="#FFFFFF" stroke-width="2.8346" stroke-linecap="round" stroke-linejoin="round" d="M259.03,100.827
			L259.03,100.827L259.03,100.827z"/>
	</g>
</g>
</svg>
